# xmcd
#
# Track frame offsets:
#	150
#	16118
#	28628
#	41628
#	55388
#	67403
#	81513
#	92950
#	108193
#	121623
#	135590
#	149053
#	162773
#	177688
#	189790
#
# Disc length: 2795 seconds
#
# Revision: 1
# Processed by: cddbd v1.5.2PL0 Copyright (c) Steve Scherf et al.
# Submitted via: audiograbber 1.83.01
#
DISCID=d30ae90f
DTITLE=Various Artist - NON STOP ZOUK
DYEAR=1900
DGENRE=
TTITLE0=LUC LEANDRY - CAFRINE
TTITLE1=ALBÉRIC LOUISON - VANESSA
TTITLE2=ON DOT KOUTCHEN - LA REVANCHE DE MICHELINE
TTITLE3=MASTER Zx - DONE A MWEN
TTITLE4=J. REBUS - MARIE-CHRISTINE
TTITLE5=DIKTAM - PA JOUÉ ÉPI L´ANMOU
TTITLE6=ALBÉRIC LOUISON - ANTOINISE
TTITLE7=MONIQUE SEKA - 900 Kg D´AMOUR
TTITLE8=KIM DJAM´L - MYSTÈ LOV
TTITLE9=Mc YOMAN - PLUS PRÉS DE TOI
TTITLE10=THIERRY CHAN - ULTIME CONFESSION
TTITLE11=JOSÉ REBUS - LE TÉLÉPHONE
TTITLE12=BLACK AFFAIRS - AS MWEN DI OU FÉ
TTITLE13=EDDY MIATH - LA PII
TTITLE14=TONY CHASSEUR - SERENA
EXTD=kiroiva@hotmail.com
EXTT0=
EXTT1=
EXTT2=
EXTT3=
EXTT4=
EXTT5=
EXTT6=
EXTT7=
EXTT8=
EXTT9=
EXTT10=
EXTT11=
EXTT12=
EXTT13=
EXTT14=
PLAYORDER=
